<?xml version="1.0" standalone="no"?>
<!DOCTYPE svg PUBLIC "-//W3C//DTD SVG 20010904//EN"
 "http://www.w3.org/TR/2001/REC-SVG-20010904/DTD/svg10.dtd">
<svg version="1.0" xmlns="http://www.w3.org/2000/svg"
 width="491.000000pt" height="491.000000pt" viewBox="0 0 491.000000 491.000000"
 preserveAspectRatio="xMidYMid meet">
<metadata>
Created by potrace 1.11, written by Peter Selinger 2001-2013
</metadata>
<g transform="translate(0.000000,491.000000) scale(0.100000,-0.100000)"
fill="#000000" stroke="none">
<path d="M2460 4868 c-62 -23 -144 -119 -238 -277 -148 -250 -265 -362 -447
-426 -74 -25 -114 -25 -270 1 -49 8 -103 17 -119 20 -16 3 -32 7 -36 9 -4 2
-20 7 -36 9 -16 3 -81 19 -144 35 -176 44 -311 40 -368 -13 -53 -47 -90 -159
-71 -213 5 -13 11 -44 15 -70 3 -27 19 -100 34 -163 45 -186 53 -244 47 -338
-8 -129 -20 -179 -67 -272 -30 -59 -61 -92 -155 -162 -60 -44 -253 -168 -363
-233 -67 -39 -147 -112 -186 -169 -35 -52 -35 -118 -1 -185 27 -55 71 -92 165
-140 79 -40 258 -164 321 -223 98 -90 170 -199 209 -313 16 -49 17 -66 7 -170
-6 -60 -58 -314 -91 -442 -29 -115 -32 -252 -6 -310 31 -70 132 -123 212 -110
98 15 173 30 258 52 292 74 429 71 597 -13 95 -49 164 -134 355 -442 98 -157
176 -248 246 -284 64 -33 170 -3 232 64 14 16 54 74 90 130 199 310 207 321
320 413 19 16 73 47 119 70 106 51 156 54 351 23 14 -3 45 -9 70 -15 25 -5 56
-12 70 -14 14 -3 63 -15 110 -27 47 -12 94 -24 105 -26 11 -2 40 -7 65 -12 25
-4 80 -7 123 -5 122 4 181 49 208 158 13 52 -1 152 -48 339 -57 224 -60 315
-19 496 3 14 21 57 41 96 28 58 47 81 105 127 82 65 183 133 367 246 133 82
228 170 252 232 23 62 -11 175 -66 219 -64 50 -166 120 -193 132 -17 7 -30 16
-30 20 0 5 -5 8 -11 8 -5 0 -49 26 -97 58 -164 108 -270 241 -320 402 -20 62
2 249 53 450 8 30 16 66 18 80 3 14 13 54 22 90 17 62 23 177 12 230 -18 88
-58 134 -142 163 -45 15 -66 15 -127 -1 -24 -6 -65 -14 -93 -18 -27 -4 -52 -8
-55 -9 -3 -1 -32 -7 -65 -15 -33 -8 -62 -14 -65 -15 -16 -4 -120 -25 -145 -30
-41 -7 -151 -7 -200 0 -75 11 -195 57 -254 96 -118 79 -198 182 -332 432 -79
149 -138 225 -194 251 -36 17 -104 19 -145 4z m150 -1042 c53 -6 205 -36 245
-50 6 -1 24 -7 40 -11 55 -15 199 -82 285 -133 329 -194 555 -515 642 -910 17
-76 22 -132 22 -262 1 -216 -19 -332 -86 -505 -171 -444 -524 -750 -991 -859
-242 -57 -486 -48 -717 26 -245 79 -507 249 -644 417 -159 195 -285 470 -312
680 -3 25 -9 71 -13 101 -23 180 11 422 90 625 106 274 291 504 533 663 99 65
314 161 395 177 12 2 31 7 41 10 105 33 314 47 470 31z"/>
<path d="M2413 3480 c-16 -10 -142 -135 -282 -278 -292 -298 -335 -356 -317
-426 21 -79 112 -146 199 -146 51 0 101 38 257 194 161 163 190 182 233 153
12 -8 83 -74 157 -147 74 -72 152 -141 173 -151 99 -51 203 -14 247 86 23 50
17 106 -15 160 -23 40 -543 564 -561 566 -51 6 -68 4 -91 -11z"/>
<path d="M2393 2765 c-56 -26 -74 -45 -95 -100 -49 -128 55 -263 192 -248 52
5 112 46 139 94 87 154 -76 329 -236 254z"/>
<path d="M2428 2320 c-162 -47 -191 -259 -47 -339 186 -105 372 144 219 291
-46 44 -118 64 -172 48z"/>
<path d="M2417 1855 c-86 -29 -132 -100 -125 -190 16 -201 301 -230 359 -36
24 80 -17 178 -90 216 -40 20 -102 25 -144 10z"/>
</g>
</svg>
